<svg xmlns="http://www.w3.org/2000/svg" xmlns:xlink="http://www.w3.org/1999/xlink" width="1920" height="1080" viewBox="0 0 1920 1080"><defs><style>.a{clip-path:url(#b);}.b{font-size:35px;font-family:SegoeUI-Bold, Segoe UI;font-weight:700;}.c,.f{fill:#fff;}.c{stroke:#fff;}.d{stroke:none;}.e{fill:none;}</style><clipPath id="b"><rect width="1920" height="1080"/></clipPath></defs><g id="a" class="a"><rect class="f" width="1920" height="1080"/><g transform="translate(56 37)"><text class="b" transform="translate(0 38)"><tspan x="0" y="0">Planned.</tspan></text></g><g transform="translate(1860 50)"><path d="M2,6.75C2,5.784,2.582,5,3.3,5H26.7c.718,0,1.3.784,1.3,1.75S27.418,8.5,26.7,8.5H3.3C2.582,8.5,2,7.716,2,6.75Z" transform="translate(-2 -5)"/><path d="M2,12.782c0-.967.448-1.75,1-1.75H21c.552,0,1,.783,1,1.75s-.448,1.75-1,1.75H3C2.448,14.532,2,13.749,2,12.782Z" transform="translate(4 -2)"/><path d="M3.3,17.065c-.718,0-1.3.783-1.3,1.75s.582,1.75,1.3,1.75H26.7c.718,0,1.3-.784,1.3-1.75s-.582-1.75-1.3-1.75Z" transform="translate(-2 1)"/></g><g class="c" transform="translate(0 168)"><rect class="d" width="1920" height="912" rx="50"/><rect class="e" x="0.5" y="0.5" width="1919" height="911" rx="49.5"/></g></g></svg>