<svg xmlns="http://www.w3.org/2000/svg" xmlns:xlink="http://www.w3.org/1999/xlink" width="1920" height="1080" viewBox="0 0 1920 1080"><defs><style>.a{clip-path:url(#b);}.b,.h{fill:none;}.b{stroke:#ffed00;stroke-width:10px;}.c,.d,.e{fill:#ffed00;}.c{font-size:35px;}.c,.d{font-family:SegoeUI-Bold, Segoe UI;font-weight:700;}.d{font-size:80px;}.e{stroke:#707070;}.f{font-size:40px;font-family:SegoeUIBlack, Segoe UI;}.g{stroke:none;}.i{fill:rgba(0,0,0,0.83);}</style><clipPath id="b"><rect width="1920" height="1080"/></clipPath></defs><g id="a" class="a"><rect class="i" width="1920" height="1080"/><g transform="translate(31.5)"><g transform="translate(18.5 95.5)"><line class="b" x2="1807.413"/></g></g><g transform="translate(50 24)"><text class="c" transform="translate(0 38)"><tspan x="0" y="0">Planned.</tspan></text></g><g transform="translate(1826.195 32.725)"><path d="M2,6A1.18,1.18,0,0,1,3.3,5H26.7A1.18,1.18,0,0,1,28,6a1.18,1.18,0,0,1-1.3,1H3.3A1.18,1.18,0,0,1,2,6Z" transform="translate(-2 -5)"/><path d="M2,12.032a1,1,0,0,1,1-1H21a1,1,0,0,1,0,2H3A1,1,0,0,1,2,12.032Z" transform="translate(4 -2)"/><path d="M3.3,17.065a1.18,1.18,0,0,0-1.3,1,1.18,1.18,0,0,0,1.3,1H26.7a1.18,1.18,0,0,0,1.3-1,1.18,1.18,0,0,0-1.3-1Z" transform="translate(-2 1)"/></g><g transform="translate(627 369)"><text class="d" transform="translate(0 86)"><tspan x="0" y="0">Come plan you</tspan><tspan x="0" y="106" xml:space="preserve"> schedule with us.</tspan></text></g><g transform="translate(614 753)"><g class="e"><rect class="g" width="327" height="97" rx="48.5"/><rect class="h" x="0.5" y="0.5" width="326" height="96" rx="48"/></g></g><g transform="translate(974 753)"><g class="e"><rect class="g" width="319" height="97" rx="48.5"/><rect class="h" x="0.5" y="0.5" width="318" height="96" rx="48"/></g></g><text class="f" transform="translate(698 818)"><tspan x="0" y="0">SIGN UP</tspan></text><text class="f" transform="translate(1072 818)"><tspan x="0" y="0">LOGIN</tspan></text></g></svg>